<svg id="visual" viewBox="0 0 750 70" width="750" height="70" xmlns="http://www.w3.org/2000/svg" xmlns:xlink="http://www.w3.org/1999/xlink" version="1.1"><path d="M0 23L12.5 22.7C25 22.3 50 21.7 75 20.3C100 19 125 17 150 18.8C175 20.7 200 26.3 225 26.8C250 27.3 275 22.7 300 18.7C325 14.7 350 11.3 375 12C400 12.7 425 17.3 450 21.2C475 25 500 28 525 25.5C550 23 575 15 600 16.5C625 18 650 29 675 31.8C700 34.7 725 29.3 737.5 26.7L750 24L750 71L737.5 71C725 71 700 71 675 71C650 71 625 71 600 71C575 71 550 71 525 71C500 71 475 71 450 71C425 71 400 71 375 71C350 71 325 71 300 71C275 71 250 71 225 71C200 71 175 71 150 71C125 71 100 71 75 71C50 71 25 71 12.5 71L0 71Z" fill="#5f96c3"></path><path d="M0 15L12.5 19.8C25 24.7 50 34.3 75 34.5C100 34.7 125 25.3 150 23.8C175 22.3 200 28.7 225 30.5C250 32.3 275 29.7 300 31.7C325 33.7 350 40.3 375 41.3C400 42.3 425 37.7 450 32.7C475 27.7 500 22.3 525 24.5C550 26.7 575 36.3 600 37.5C625 38.7 650 31.3 675 30.3C700 29.3 725 34.7 737.5 37.3L750 40L750 71L737.5 71C725 71 700 71 675 71C650 71 625 71 600 71C575 71 550 71 525 71C500 71 475 71 450 71C425 71 400 71 375 71C350 71 325 71 300 71C275 71 250 71 225 71C200 71 175 71 150 71C125 71 100 71 75 71C50 71 25 71 12.5 71L0 71Z" fill="#4784bd"></path><path d="M0 47L12.5 47.7C25 48.3 50 49.7 75 48.5C100 47.3 125 43.7 150 39.5C175 35.3 200 30.7 225 28.3C250 26 275 26 300 27.7C325 29.3 350 32.7 375 34.2C400 35.7 425 35.3 450 36.2C475 37 500 39 525 40C550 41 575 41 600 39C625 37 650 33 675 34.7C700 36.3 725 43.7 737.5 47.3L750 51L750 71L737.5 71C725 71 700 71 675 71C650 71 625 71 600 71C575 71 550 71 525 71C500 71 475 71 450 71C425 71 400 71 375 71C350 71 325 71 300 71C275 71 250 71 225 71C200 71 175 71 150 71C125 71 100 71 75 71C50 71 25 71 12.5 71L0 71Z" fill="#3172b6"></path><path d="M0 47L12.5 48.2C25 49.3 50 51.7 75 50.8C100 50 125 46 150 44C175 42 200 42 225 44.7C250 47.3 275 52.7 300 55.8C325 59 350 60 375 58.7C400 57.3 425 53.7 450 52.5C475 51.3 500 52.7 525 53.7C550 54.7 575 55.3 600 54.2C625 53 650 50 675 47.2C700 44.3 725 41.7 737.5 40.3L750 39L750 71L737.5 71C725 71 700 71 675 71C650 71 625 71 600 71C575 71 550 71 525 71C500 71 475 71 450 71C425 71 400 71 375 71C350 71 325 71 300 71C275 71 250 71 225 71C200 71 175 71 150 71C125 71 100 71 75 71C50 71 25 71 12.5 71L0 71Z" fill="#1f60ad"></path><path d="M0 63L12.5 60.3C25 57.7 50 52.3 75 49.8C100 47.3 125 47.7 150 48.5C175 49.3 200 50.7 225 51.7C250 52.7 275 53.3 300 55.3C325 57.3 350 60.7 375 60.7C400 60.7 425 57.3 450 54.8C475 52.3 500 50.7 525 51C550 51.3 575 53.7 600 56.2C625 58.7 650 61.3 675 62.7C700 64 725 64 737.5 64L750 64L750 71L737.5 71C725 71 700 71 675 71C650 71 625 71 600 71C575 71 550 71 525 71C500 71 475 71 450 71C425 71 400 71 375 71C350 71 325 71 300 71C275 71 250 71 225 71C200 71 175 71 150 71C125 71 100 71 75 71C50 71 25 71 12.5 71L0 71Z" fill="#134da3"></path></svg>